o corner_stairs

v -12 -12 12
v 12 -12 12
v -12 -8 12
v 12 -8 12
v -12 -8 -12
v 12 -8 -12
v -12 -12 -12
v 12 -12 -12
v -12 -8 8
v 8 -8 8
v -12 -4 8
v 8 -4 8
v -12 -4 -12
v 8 -4 -12
v -12 -8 -12
v 8 -8 -12
v -12 -4 4
v 4 -4 4
v -12 0 4
v 4 0 4
v -12 0 -12
v 4 0 -12
v -12 -4 -12
v 4 -4 -12
v -12 0 0
v 0 0 0
v -12 4 0
v 0 4 0
v -12 4 -12
v 0 4 -12
v -12 0 -12
v 0 0 -12
v -12 4 -4
v -4 4 -4
v -12 8 -4
v -4 8 -4
v -12 8 -12
v -4 8 -12
v -12 4 -12
v -4 4 -12
v -12 8 -8
v -8 8 -8
v -12 12 -8
v -8 12 -8
v -12 12 -12
v -8 12 -12
v -12 8 -12
v -8 8 -12

f 1 2 4 3
f 3 4 6 5
f 5 6 8 7
f 7 8 2 1
f 2 8 6 4
f 7 1 3 5
f 9 10 12 11
f 11 12 14 13
f 13 14 16 15
f 15 16 10 9
f 10 16 14 12
f 15 9 11 13
f 17 18 20 19
f 19 20 22 21
f 21 22 24 23
f 23 24 18 17
f 18 24 22 20
f 23 17 19 21
f 25 26 28 27
f 27 28 30 29
f 29 30 32 31
f 31 32 26 25
f 26 32 30 28
f 31 25 27 29
f 33 34 36 35
f 35 36 38 37
f 37 38 40 39
f 39 40 34 33
f 34 40 38 36
f 39 33 35 37
f 41 42 44 43
f 43 44 46 45
f 45 46 48 47
f 47 48 42 41
f 42 48 46 44
f 47 41 43 45
