# Blender 4.1.1
# www.blender.org
o curved_slab
v 12.000000 -11.999999 12.000001
v 12.000002 -11.999999 -11.999999
v 12.000000 -7.999999 12.000001
v 12.000002 -7.999999 -11.999999
v -12.000000 -8.000001 11.999999
v -12.000000 -12.000001 11.999999
v 9.387312 -8.000000 -11.999999
v -12.000000 -8.000001 9.387311
v 6.992692 -8.999999 -11.865520
v 4.628187 -10.000000 -11.463776
v 2.323531 -11.000000 -10.799816
v 0.107706 -12.000000 -9.881990
v -1.991423 -12.000000 -8.721844
v -3.947458 -12.000000 -7.333962
v -5.735800 -12.000000 -5.735801
v -7.333962 -12.000001 -3.947460
v -8.721843 -12.000001 -1.991424
v -9.881989 -12.000001 0.107704
v -10.799815 -11.000001 2.323530
v -11.463776 -10.000001 4.628186
v -11.865520 -9.000001 6.992692
v -12.000000 -12.000001 9.387309
v 9.387314 -11.999999 -11.999999
v -11.865520 -12.000001 6.992690
v -11.463775 -12.000001 4.628185
v -10.799815 -12.000001 2.323529
v -9.881989 -12.000001 0.107703
v -8.721843 -12.000001 -1.991425
v -7.333960 -12.000001 -3.947460
v -5.735799 -12.000000 -5.735802
v -3.947458 -12.000000 -7.333964
v -1.991422 -12.000000 -8.721844
v 0.107707 -12.000000 -9.881990
v 2.323532 -12.000000 -10.799816
v 4.628189 -12.000000 -11.463776
v 6.992695 -11.999999 -11.865520
vn 1.0000 -0.0000 -0.0000
vn -0.0000 -1.0000 -0.0000
vn -0.1313 0.9826 -0.1313
vn -1.0000 -0.0000 -0.0000
vn -0.0000 -0.0000 1.0000
vn -0.0561 -0.0000 -0.9984
vn -0.1675 -0.0000 -0.9859
vn -0.2768 -0.0000 -0.9609
vn -0.3827 -0.0000 -0.9239
vn -0.0000 1.0000 -0.0000
vn -0.9239 -0.0000 -0.3827
vn -0.9609 -0.0000 -0.2768
vn -0.9859 -0.0000 -0.1675
vn -0.9984 -0.0000 -0.0561
vn -0.0000 -0.0000 -1.0000
s 0
f 1//1 2//1 4//1 3//1
f 6//2 22//2 24//2 25//2 26//2 27//2 28//2 29//2 30//2 31//2 32//2 33//2 34//2 35//2 36//2 23//2 2//2 1//2
f 3//3 4//3 7//3 9//3 10//3 11//3 12//3 13//3 14//3 15//3 16//3 17//3 18//3 19//3 20//3 21//3 8//3 5//3
f 5//4 8//4 22//4 6//4
f 6//5 1//5 3//5 5//5
f 7//6 23//6 36//6 9//6
f 9//7 36//7 35//7 10//7
f 10//8 35//8 34//8 11//8
f 11//9 34//9 33//9 12//9
f 12//2 33//2 32//2 13//2
f 13//10 32//10 31//10 14//10
f 14//10 31//10 30//10 15//10
f 15//2 30//2 29//2 16//2
f 16//2 29//2 28//2 17//2
f 17//10 28//10 27//10 18//10
f 18//11 27//11 26//11 19//11
f 19//12 26//12 25//12 20//12
f 20//13 25//13 24//13 21//13
f 21//14 24//14 22//14 8//14
f 2//15 23//15 7//15 4//15
